<svg viewBox="0 0 1024 1024" xmlns="http://www.w3.org/2000/svg" fill="currentColor" width="16" height="16">
  <path d="M632.6 922.1c-22.8 0-43.8-12.6-54.5-33.1L426.7 597.3 135.2 445.9c-22-11.4-34.9-34.8-32.9-59.5s18.6-45.7 42.2-53.4l695.7-227.7c22.5-7.4 46.9-1.5 63.6 15.2 16.7 16.7 22.5 41.1 15.1 63.6L691.1 879.7c-7.7 23.6-28.7 40.1-53.4 42.2-1.8 0.1-3.4 0.2-5.1 0.2z m-447.1-529l293.1 152.2 152.2 293.2 216.8-662.2-662.1 216.8z"/>
  <path d="M431.916 542.484l403.118-403.118 49.497 49.497-403.118 403.118z"/>
</svg>
