<svg xmlns="http://www.w3.org/2000/svg" viewBox="0 0 1024 1024" fill="none">
  <g transform="translate(512 512) scale(31) translate(-16 -16)">
    <defs>
    <linearGradient id="axi-transition-violet-red" gradientUnits="userSpaceOnUse" x1="15.275" y1="14.744" x2="16.725" y2="14.744">
      <stop offset="0" stop-color="#9901FF"/>
      <stop offset="1" stop-color="#FF0167"/>
    </linearGradient>
    <linearGradient id="axi-transition-red-yellow" gradientUnits="userSpaceOnUse" x1="15.275" y1="14.744" x2="16.725" y2="14.744" gradientTransform="rotate(60 16 16)">
      <stop offset="0" stop-color="#FF0167"/>
      <stop offset="1" stop-color="#E6FF01"/>
    </linearGradient>
    <linearGradient id="axi-transition-yellow-green" gradientUnits="userSpaceOnUse" x1="15.275" y1="14.744" x2="16.725" y2="14.744" gradientTransform="rotate(120 16 16)">
      <stop offset="0" stop-color="#E6FF01"/>
      <stop offset="1" stop-color="#67FF01"/>
    </linearGradient>
    <linearGradient id="axi-transition-green-cyan" gradientUnits="userSpaceOnUse" x1="15.275" y1="14.744" x2="16.725" y2="14.744" gradientTransform="rotate(180 16 16)">
      <stop offset="0" stop-color="#67FF01"/>
      <stop offset="1" stop-color="#00E5FF"/>
    </linearGradient>
    <linearGradient id="axi-transition-cyan-violet" gradientUnits="userSpaceOnUse" x1="15.275" y1="14.744" x2="16.725" y2="14.744" gradientTransform="rotate(240 16 16)">
      <stop offset="0" stop-color="#00E5FF"/>
      <stop offset="1" stop-color="#9901FF"/>
    </linearGradient>
    <linearGradient id="axi-transition-violet-blue" gradientUnits="userSpaceOnUse" x1="15.275" y1="14.744" x2="16.725" y2="14.744" gradientTransform="rotate(300 16 16)">
      <stop offset="0" stop-color="#9901FF"/>
      <stop offset="1" stop-color="#0167FF"/>
    </linearGradient>
  </defs>
  <g stroke="#000000" stroke-width="0.28" stroke-linecap="round" stroke-linejoin="round">
    <path fill="#0167FF" d="M16 0.18 C13.55 1.35 11 3.1 10.65 5.3 C10.65 6.7 11.25 7.75 11.85 8.8 L16 16 L20.15 8.8 C20.75 7.75 21.35 6.7 21.35 5.3 C21 3.1 18.45 1.35 16 0.18 Z"/>
    <path d="M16 2.05 C14.4 3 13.1 4.6 13 6.3 C12.9 8 14 10 15.3 12.4 C15.55 12.9 15.8 13.45 16 13.95 C16.2 13.45 16.45 12.9 16.7 12.4 C18 10 19.1 8 19 6.3 C18.9 4.6 17.6 3 16 2.05 Z"/>
  </g>
  <g transform="rotate(60 16 16)" stroke="#000000" stroke-width="0.28" stroke-linecap="round" stroke-linejoin="round">
    <path fill="#FF0167" d="M16 0.18 C13.55 1.35 11 3.1 10.65 5.3 C10.65 6.7 11.25 7.75 11.85 8.8 L16 16 L20.15 8.8 C20.75 7.75 21.35 6.7 21.35 5.3 C21 3.1 18.45 1.35 16 0.18 Z"/>
    <path d="M16 2.05 C14.4 3 13.1 4.6 13 6.3 C12.9 8 14 10 15.3 12.4 C15.55 12.9 15.8 13.45 16 13.95 C16.2 13.45 16.45 12.9 16.7 12.4 C18 10 19.1 8 19 6.3 C18.9 4.6 17.6 3 16 2.05 Z"/>
  </g>
  <g transform="rotate(120 16 16)" stroke="#000000" stroke-width="0.28" stroke-linecap="round" stroke-linejoin="round">
    <path fill="#E6FF01" d="M16 0.18 C13.55 1.35 11 3.1 10.65 5.3 C10.65 6.7 11.25 7.75 11.85 8.8 L16 16 L20.15 8.8 C20.75 7.75 21.35 6.7 21.35 5.3 C21 3.1 18.45 1.35 16 0.18 Z"/>
    <path d="M16 2.05 C14.4 3 13.1 4.6 13 6.3 C12.9 8 14 10 15.3 12.4 C15.55 12.9 15.8 13.45 16 13.95 C16.2 13.45 16.45 12.9 16.7 12.4 C18 10 19.1 8 19 6.3 C18.9 4.6 17.6 3 16 2.05 Z"/>
  </g>
  <g transform="rotate(180 16 16)" stroke="#000000" stroke-width="0.28" stroke-linecap="round" stroke-linejoin="round">
    <path fill="#67FF01" d="M16 0.18 C13.55 1.35 11 3.1 10.65 5.3 C10.65 6.7 11.25 7.75 11.85 8.8 L16 16 L20.15 8.8 C20.75 7.75 21.35 6.7 21.35 5.3 C21 3.1 18.45 1.35 16 0.18 Z"/>
    <path d="M16 2.05 C14.4 3 13.1 4.6 13 6.3 C12.9 8 14 10 15.3 12.4 C15.55 12.9 15.8 13.45 16 13.95 C16.2 13.45 16.45 12.9 16.7 12.4 C18 10 19.1 8 19 6.3 C18.9 4.6 17.6 3 16 2.05 Z"/>
  </g>
  <g transform="rotate(240 16 16)" stroke="#000000" stroke-width="0.28" stroke-linecap="round" stroke-linejoin="round">
    <path fill="#00E5FF" d="M16 0.18 C13.55 1.35 11 3.1 10.65 5.3 C10.65 6.7 11.25 7.75 11.85 8.8 L16 16 L20.15 8.8 C20.75 7.75 21.35 6.7 21.35 5.3 C21 3.1 18.45 1.35 16 0.18 Z"/>
    <path d="M16 2.05 C14.4 3 13.1 4.6 13 6.3 C12.9 8 14 10 15.3 12.4 C15.55 12.9 15.8 13.45 16 13.95 C16.2 13.45 16.45 12.9 16.7 12.4 C18 10 19.1 8 19 6.3 C18.9 4.6 17.6 3 16 2.05 Z"/>
  </g>
  <g transform="rotate(300 16 16)" stroke="#000000" stroke-width="0.28" stroke-linecap="round" stroke-linejoin="round">
    <path fill="#9901FF" d="M16 0.18 C13.55 1.35 11 3.1 10.65 5.3 C10.65 6.7 11.25 7.75 11.85 8.8 L16 16 L20.15 8.8 C20.75 7.75 21.35 6.7 21.35 5.3 C21 3.1 18.45 1.35 16 0.18 Z"/>
    <path d="M16 2.05 C14.4 3 13.1 4.6 13 6.3 C12.9 8 14 10 15.3 12.4 C15.55 12.9 15.8 13.45 16 13.95 C16.2 13.45 16.45 12.9 16.7 12.4 C18 10 19.1 8 19 6.3 C18.9 4.6 17.6 3 16 2.05 Z"/>
  </g>
  <g fill="#000000" stroke="#000000" stroke-width="0.18" stroke-linecap="round" stroke-linejoin="round">
    <path fill="url(#axi-transition-violet-red)" d="M16 16 L15.275 14.744 A0.725 0.725 0 0 1 16.725 14.744 Z"/>
    <path fill="url(#axi-transition-red-yellow)" d="M16 16 L15.275 14.744 A0.725 0.725 0 0 1 16.725 14.744 Z" transform="rotate(60 16 16)"/>
    <path fill="url(#axi-transition-yellow-green)" d="M16 16 L15.275 14.744 A0.725 0.725 0 0 1 16.725 14.744 Z" transform="rotate(120 16 16)"/>
    <path fill="url(#axi-transition-green-cyan)" d="M16 16 L15.275 14.744 A0.725 0.725 0 0 1 16.725 14.744 Z" transform="rotate(180 16 16)"/>
    <path fill="url(#axi-transition-cyan-violet)" d="M16 16 L15.275 14.744 A0.725 0.725 0 0 1 16.725 14.744 Z" transform="rotate(240 16 16)"/>
    <path fill="url(#axi-transition-violet-blue)" d="M16 16 L15.275 14.744 A0.725 0.725 0 0 1 16.725 14.744 Z" transform="rotate(300 16 16)"/>
  </g>
  </g>
</svg>
