<svg xmlns="http://www.w3.org/2000/svg" viewBox="0 0 32 32" fill="none">
  <g stroke-linecap="round" stroke-linejoin="round">
    <path d="M16 16 L9.95 5.55 C10.75 2.65 13.03 0.6 16 0.42 C18.97 0.6 21.25 2.65 22.05 5.55 Z" fill="none" stroke="#21364F" stroke-opacity="0.45" stroke-width="0.78" transform="translate(0.15 0.18)"/>
    <path fill="#7FB5FF" stroke="#FFFFFF" stroke-opacity="0.34" stroke-width="0.28" d="M16 16 L9.95 5.55 C10.75 2.65 13.03 0.6 16 0.42 C18.97 0.6 21.25 2.65 22.05 5.55 Z"/>
    <path fill="#FFFFFF" fill-opacity="0.16" stroke="#274968" stroke-opacity="0.58" stroke-width="0.72" d="M16 14.85 L12.55 7.2 C13.1 4.8 14.35 2.75 16 1.85 C17.65 2.75 18.9 4.8 19.45 7.2 Z"/>
    <path fill="none" stroke="#FFFFFF" stroke-opacity="0.9" stroke-width="0.26" d="M16 14.85 L12.55 7.2 C13.1 4.8 14.35 2.75 16 1.85 C17.65 2.75 18.9 4.8 19.45 7.2 Z" transform="translate(-0.08 -0.1)"/>
  </g>
  <g transform="rotate(60 16 16)" stroke-linecap="round" stroke-linejoin="round">
    <path d="M16 16 L9.95 5.55 C10.75 2.65 13.03 0.6 16 0.42 C18.97 0.6 21.25 2.65 22.05 5.55 Z" fill="none" stroke="#21364F" stroke-opacity="0.45" stroke-width="0.78" transform="translate(0.15 0.18)"/>
    <path fill="#FF929D" stroke="#FFFFFF" stroke-opacity="0.34" stroke-width="0.28" d="M16 16 L9.95 5.55 C10.75 2.65 13.03 0.6 16 0.42 C18.97 0.6 21.25 2.65 22.05 5.55 Z"/>
    <path fill="#FFFFFF" fill-opacity="0.16" stroke="#274968" stroke-opacity="0.58" stroke-width="0.72" d="M16 14.85 L12.55 7.2 C13.1 4.8 14.35 2.75 16 1.85 C17.65 2.75 18.9 4.8 19.45 7.2 Z"/>
    <path fill="none" stroke="#FFFFFF" stroke-opacity="0.9" stroke-width="0.26" d="M16 14.85 L12.55 7.2 C13.1 4.8 14.35 2.75 16 1.85 C17.65 2.75 18.9 4.8 19.45 7.2 Z" transform="translate(-0.08 -0.1)"/>
  </g>
  <g transform="rotate(120 16 16)" stroke-linecap="round" stroke-linejoin="round">
    <path d="M16 16 L9.95 5.55 C10.75 2.65 13.03 0.6 16 0.42 C18.97 0.6 21.25 2.65 22.05 5.55 Z" fill="none" stroke="#21364F" stroke-opacity="0.45" stroke-width="0.78" transform="translate(0.15 0.18)"/>
    <path fill="#FFE07A" stroke="#FFFFFF" stroke-opacity="0.34" stroke-width="0.28" d="M16 16 L9.95 5.55 C10.75 2.65 13.03 0.6 16 0.42 C18.97 0.6 21.25 2.65 22.05 5.55 Z"/>
    <path fill="#FFFFFF" fill-opacity="0.16" stroke="#274968" stroke-opacity="0.58" stroke-width="0.72" d="M16 14.85 L12.55 7.2 C13.1 4.8 14.35 2.75 16 1.85 C17.65 2.75 18.9 4.8 19.45 7.2 Z"/>
    <path fill="none" stroke="#FFFFFF" stroke-opacity="0.9" stroke-width="0.26" d="M16 14.85 L12.55 7.2 C13.1 4.8 14.35 2.75 16 1.85 C17.65 2.75 18.9 4.8 19.45 7.2 Z" transform="translate(-0.08 -0.1)"/>
  </g>
  <g transform="rotate(180 16 16)" stroke-linecap="round" stroke-linejoin="round">
    <path d="M16 16 L9.95 5.55 C10.75 2.65 13.03 0.6 16 0.42 C18.97 0.6 21.25 2.65 22.05 5.55 Z" fill="none" stroke="#21364F" stroke-opacity="0.45" stroke-width="0.78" transform="translate(0.15 0.18)"/>
    <path fill="#79E6A4" stroke="#FFFFFF" stroke-opacity="0.34" stroke-width="0.28" d="M16 16 L9.95 5.55 C10.75 2.65 13.03 0.6 16 0.42 C18.97 0.6 21.25 2.65 22.05 5.55 Z"/>
    <path fill="#FFFFFF" fill-opacity="0.16" stroke="#274968" stroke-opacity="0.58" stroke-width="0.72" d="M16 14.85 L12.55 7.2 C13.1 4.8 14.35 2.75 16 1.85 C17.65 2.75 18.9 4.8 19.45 7.2 Z"/>
    <path fill="none" stroke="#FFFFFF" stroke-opacity="0.9" stroke-width="0.26" d="M16 14.85 L12.55 7.2 C13.1 4.8 14.35 2.75 16 1.85 C17.65 2.75 18.9 4.8 19.45 7.2 Z" transform="translate(-0.08 -0.1)"/>
  </g>
  <g transform="rotate(240 16 16)" stroke-linecap="round" stroke-linejoin="round">
    <path d="M16 16 L9.95 5.55 C10.75 2.65 13.03 0.6 16 0.42 C18.97 0.6 21.25 2.65 22.05 5.55 Z" fill="none" stroke="#21364F" stroke-opacity="0.45" stroke-width="0.78" transform="translate(0.15 0.18)"/>
    <path fill="#70E0EE" stroke="#FFFFFF" stroke-opacity="0.34" stroke-width="0.28" d="M16 16 L9.95 5.55 C10.75 2.65 13.03 0.6 16 0.42 C18.97 0.6 21.25 2.65 22.05 5.55 Z"/>
    <path fill="#FFFFFF" fill-opacity="0.16" stroke="#274968" stroke-opacity="0.58" stroke-width="0.72" d="M16 14.85 L12.55 7.2 C13.1 4.8 14.35 2.75 16 1.85 C17.65 2.75 18.9 4.8 19.45 7.2 Z"/>
    <path fill="none" stroke="#FFFFFF" stroke-opacity="0.9" stroke-width="0.26" d="M16 14.85 L12.55 7.2 C13.1 4.8 14.35 2.75 16 1.85 C17.65 2.75 18.9 4.8 19.45 7.2 Z" transform="translate(-0.08 -0.1)"/>
  </g>
  <g transform="rotate(300 16 16)" stroke-linecap="round" stroke-linejoin="round">
    <path d="M16 16 L9.95 5.55 C10.75 2.65 13.03 0.6 16 0.42 C18.97 0.6 21.25 2.65 22.05 5.55 Z" fill="none" stroke="#21364F" stroke-opacity="0.45" stroke-width="0.78" transform="translate(0.15 0.18)"/>
    <path fill="#C39AFF" stroke="#FFFFFF" stroke-opacity="0.34" stroke-width="0.28" d="M16 16 L9.95 5.55 C10.75 2.65 13.03 0.6 16 0.42 C18.97 0.6 21.25 2.65 22.05 5.55 Z"/>
    <path fill="#FFFFFF" fill-opacity="0.16" stroke="#274968" stroke-opacity="0.58" stroke-width="0.72" d="M16 14.85 L12.55 7.2 C13.1 4.8 14.35 2.75 16 1.85 C17.65 2.75 18.9 4.8 19.45 7.2 Z"/>
    <path fill="none" stroke="#FFFFFF" stroke-opacity="0.9" stroke-width="0.26" d="M16 14.85 L12.55 7.2 C13.1 4.8 14.35 2.75 16 1.85 C17.65 2.75 18.9 4.8 19.45 7.2 Z" transform="translate(-0.08 -0.1)"/>
  </g>
  <circle cx="16" cy="16" r="2.48" fill="#17314D" fill-opacity="0.42"/>
  <circle cx="16" cy="16" r="2.2" fill="#FFFFFF" stroke="#17314D" stroke-width="0.42"/>
  <circle cx="15.35" cy="15.35" r="0.42" fill="#FFFFFF" fill-opacity="0.72"/>
</svg>
